<mxfile host="app.diagrams.net" modified="2023-03-24T18:23:09.851Z" agent="Mozilla/5.0 (Windows NT 10.0; Win64; x64) AppleWebKit/537.36 (KHTML, like Gecko) Chrome/111.0.0.0 Safari/537.36" etag="S9ttoAjfA38gjf-XI5EK" version="21.1.1" type="google">
  <diagram name="StrÃ¡nka-1" id="uXo5vygOGTpBqBjE8Srh">
    <mxGraphModel grid="1" page="1" gridSize="10" guides="1" tooltips="1" connect="1" arrows="1" fold="1" pageScale="1" pageWidth="827" pageHeight="1169" math="0" shadow="0">
      <root>
        <mxCell id="0" />
        <mxCell id="1" parent="0" />
        <mxCell id="g8Qsp9AxYYXg8evCIIii-2" value="&amp;lt;&amp;lt;device&amp;gt;&amp;gt;&lt;br&gt;:Windows server" style="verticalAlign=top;align=center;spacingTop=8;spacingLeft=2;spacingRight=12;shape=cube;size=10;direction=south;fontStyle=4;html=1;whiteSpace=wrap;" vertex="1" parent="1">
          <mxGeometry x="10" y="50" width="790" height="850" as="geometry" />
        </mxCell>
        <mxCell id="g8Qsp9AxYYXg8evCIIii-36" value="&amp;lt;&amp;lt;executionEnvironment&amp;gt;&amp;gt;&lt;br&gt;:VirtualBox" style="verticalAlign=top;align=center;spacingTop=8;spacingLeft=2;spacingRight=12;shape=cube;size=10;direction=south;fontStyle=4;html=1;whiteSpace=wrap;" vertex="1" parent="1">
          <mxGeometry x="20" y="110" width="760" height="770" as="geometry" />
        </mxCell>
        <mxCell id="g8Qsp9AxYYXg8evCIIii-3" value="Deployment&amp;nbsp;" style="shape=umlFrame;whiteSpace=wrap;html=1;pointerEvents=0;width=120;height=30;" vertex="1" parent="1">
          <mxGeometry width="810" height="1140" as="geometry" />
        </mxCell>
        <mxCell id="g8Qsp9AxYYXg8evCIIii-4" value="&amp;lt;&amp;lt;device&amp;gt;&amp;gt;&lt;br&gt;:Linux server" style="verticalAlign=top;align=center;spacingTop=8;spacingLeft=2;spacingRight=12;shape=cube;size=10;direction=south;fontStyle=4;html=1;whiteSpace=wrap;" vertex="1" parent="1">
          <mxGeometry x="260" y="912" width="263" height="215" as="geometry" />
        </mxCell>
        <mxCell id="g8Qsp9AxYYXg8evCIIii-5" value="&amp;lt;&amp;lt;executionEnvironment&amp;gt;&amp;gt;&lt;br&gt;:OpenWRT router" style="verticalAlign=top;align=center;spacingTop=8;spacingLeft=2;spacingRight=12;shape=cube;size=10;direction=south;fontStyle=4;html=1;whiteSpace=wrap;" vertex="1" parent="1">
          <mxGeometry x="40" y="420" width="200" height="110" as="geometry" />
        </mxCell>
        <mxCell id="g8Qsp9AxYYXg8evCIIii-6" value="&amp;lt;&amp;lt;executionEnvironment&amp;gt;&amp;gt;&lt;br&gt;:Linux Debian server" style="verticalAlign=top;align=center;spacingTop=8;spacingLeft=2;spacingRight=12;shape=cube;size=10;direction=south;fontStyle=4;html=1;whiteSpace=wrap;" vertex="1" parent="1">
          <mxGeometry x="250" y="170" width="510" height="690" as="geometry" />
        </mxCell>
        <mxCell id="g8Qsp9AxYYXg8evCIIii-7" value="&amp;lt;&amp;lt;executionEnvironment&amp;gt;&amp;gt;&lt;br&gt;:Docker" style="verticalAlign=top;align=center;spacingTop=8;spacingLeft=2;spacingRight=12;shape=cube;size=10;direction=south;fontStyle=4;html=1;whiteSpace=wrap;" vertex="1" parent="1">
          <mxGeometry x="260" y="225" width="480" height="555" as="geometry" />
        </mxCell>
        <mxCell id="g8Qsp9AxYYXg8evCIIii-9" value="&amp;lt;&amp;lt;executionEnvironment&amp;gt;&amp;gt;&lt;br&gt;:Docker" style="verticalAlign=top;align=center;spacingTop=8;spacingLeft=2;spacingRight=12;shape=cube;size=10;direction=south;fontStyle=4;html=1;whiteSpace=wrap;" vertex="1" parent="1">
          <mxGeometry x="270" y="962" width="230" height="150" as="geometry" />
        </mxCell>
        <mxCell id="g8Qsp9AxYYXg8evCIIii-11" value=":gitlab/gitlab-runner" style="rounded=0;whiteSpace=wrap;html=1;" vertex="1" parent="1">
          <mxGeometry x="270" y="330" width="220" height="40" as="geometry" />
        </mxCell>
        <mxCell id="g8Qsp9AxYYXg8evCIIii-12" value=":portainer/portainer-ce" style="rounded=0;whiteSpace=wrap;html=1;" vertex="1" parent="1">
          <mxGeometry x="270" y="275" width="220" height="40" as="geometry" />
        </mxCell>
        <mxCell id="g8Qsp9AxYYXg8evCIIii-13" value=":Zerotier-one (leaf)" style="rounded=0;whiteSpace=wrap;html=1;" vertex="1" parent="1">
          <mxGeometry x="260" y="791" width="480" height="40" as="geometry" />
        </mxCell>
        <mxCell id="zb0MqL-qGSSJoHRhDOU4-1" value="" style="edgeStyle=orthogonalEdgeStyle;rounded=0;orthogonalLoop=1;jettySize=auto;html=1;endArrow=none;endFill=0;" edge="1" parent="1" source="g8Qsp9AxYYXg8evCIIii-14" target="g8Qsp9AxYYXg8evCIIii-13">
          <mxGeometry relative="1" as="geometry">
            <Array as="points">
              <mxPoint x="290" y="880" />
              <mxPoint x="290" y="880" />
            </Array>
          </mxGeometry>
        </mxCell>
        <mxCell id="g8Qsp9AxYYXg8evCIIii-14" value=":zyclonite/zerotier (controller)" style="rounded=0;whiteSpace=wrap;html=1;" vertex="1" parent="1">
          <mxGeometry x="280" y="1012" width="200" height="40" as="geometry" />
        </mxCell>
        <mxCell id="g8Qsp9AxYYXg8evCIIii-15" value=":dec0dos/zero-ui" style="rounded=0;whiteSpace=wrap;html=1;" vertex="1" parent="1">
          <mxGeometry x="280" y="1062" width="200" height="40" as="geometry" />
        </mxCell>
        <mxCell id="g8Qsp9AxYYXg8evCIIii-19" value=":Users database" style="rounded=0;whiteSpace=wrap;html=1;" vertex="1" parent="1">
          <mxGeometry x="500" y="330" width="220" height="40" as="geometry" />
        </mxCell>
        <mxCell id="g8Qsp9AxYYXg8evCIIii-20" value=":Project database" style="rounded=0;whiteSpace=wrap;html=1;" vertex="1" parent="1">
          <mxGeometry x="500" y="380" width="220" height="40" as="geometry" />
        </mxCell>
        <mxCell id="g8Qsp9AxYYXg8evCIIii-21" value=":Risk database" style="rounded=0;whiteSpace=wrap;html=1;" vertex="1" parent="1">
          <mxGeometry x="500" y="430" width="220" height="40" as="geometry" />
        </mxCell>
        <mxCell id="g8Qsp9AxYYXg8evCIIii-22" value=":Project phase database" style="rounded=0;whiteSpace=wrap;html=1;" vertex="1" parent="1">
          <mxGeometry x="500" y="480" width="220" height="40" as="geometry" />
        </mxCell>
        <mxCell id="g8Qsp9AxYYXg8evCIIii-23" value=":Opportunity database" style="rounded=0;whiteSpace=wrap;html=1;" vertex="1" parent="1">
          <mxGeometry x="500" y="530" width="220" height="40" as="geometry" />
        </mxCell>
        <mxCell id="g8Qsp9AxYYXg8evCIIii-24" value=":Risk template database" style="rounded=0;whiteSpace=wrap;html=1;" vertex="1" parent="1">
          <mxGeometry x="500" y="580" width="220" height="40" as="geometry" />
        </mxCell>
        <mxCell id="g8Qsp9AxYYXg8evCIIii-25" value=":Analysis database" style="rounded=0;whiteSpace=wrap;html=1;" vertex="1" parent="1">
          <mxGeometry x="500" y="630" width="220" height="40" as="geometry" />
        </mxCell>
        <mxCell id="g8Qsp9AxYYXg8evCIIii-26" value="&lt;div&gt;&lt;br&gt;&lt;/div&gt;&lt;div&gt;Block communication from Linux server to Windows server local network&lt;/div&gt;" style="shape=note;whiteSpace=wrap;html=1;backgroundOutline=1;darkOpacity=0.05;" vertex="1" parent="1">
          <mxGeometry x="70" y="580" width="140" height="110" as="geometry" />
        </mxCell>
        <mxCell id="g8Qsp9AxYYXg8evCIIii-28" value="Executes CI/CD" style="shape=note;whiteSpace=wrap;html=1;backgroundOutline=1;darkOpacity=0.05;" vertex="1" parent="1">
          <mxGeometry x="60" y="260" width="140" height="90" as="geometry" />
        </mxCell>
        <mxCell id="g8Qsp9AxYYXg8evCIIii-32" value="" style="endArrow=none;dashed=1;html=1;rounded=0;" edge="1" parent="1" source="g8Qsp9AxYYXg8evCIIii-5" target="g8Qsp9AxYYXg8evCIIii-26">
          <mxGeometry width="50" height="50" relative="1" as="geometry">
            <mxPoint x="410" y="410" as="sourcePoint" />
            <mxPoint x="460" y="360" as="targetPoint" />
          </mxGeometry>
        </mxCell>
        <mxCell id="g8Qsp9AxYYXg8evCIIii-33" value="" style="endArrow=none;dashed=1;html=1;rounded=0;" edge="1" parent="1" source="g8Qsp9AxYYXg8evCIIii-11" target="g8Qsp9AxYYXg8evCIIii-28">
          <mxGeometry width="50" height="50" relative="1" as="geometry">
            <mxPoint x="410" y="410" as="sourcePoint" />
            <mxPoint x="460" y="360" as="targetPoint" />
          </mxGeometry>
        </mxCell>
        <mxCell id="g8Qsp9AxYYXg8evCIIii-35" value=":Firewall" style="rounded=0;whiteSpace=wrap;html=1;" vertex="1" parent="1">
          <mxGeometry x="50" y="480" width="170" height="40" as="geometry" />
        </mxCell>
        <mxCell id="g8Qsp9AxYYXg8evCIIii-38" value="" style="endArrow=none;html=1;rounded=0;" edge="1" parent="1" source="g8Qsp9AxYYXg8evCIIii-5" target="g8Qsp9AxYYXg8evCIIii-36">
          <mxGeometry width="50" height="50" relative="1" as="geometry">
            <mxPoint x="120" y="550" as="sourcePoint" />
            <mxPoint x="170" y="500" as="targetPoint" />
          </mxGeometry>
        </mxCell>
        <mxCell id="g8Qsp9AxYYXg8evCIIii-39" value="" style="endArrow=none;html=1;rounded=0;" edge="1" parent="1" target="g8Qsp9AxYYXg8evCIIii-36">
          <mxGeometry width="50" height="50" relative="1" as="geometry">
            <mxPoint x="500" y="60" as="sourcePoint" />
            <mxPoint x="170" y="260" as="targetPoint" />
          </mxGeometry>
        </mxCell>
        <mxCell id="g8Qsp9AxYYXg8evCIIii-40" value="&lt;div&gt;&lt;br&gt;&lt;/div&gt;&lt;div&gt;Container management&lt;/div&gt;" style="shape=note;whiteSpace=wrap;html=1;backgroundOutline=1;darkOpacity=0.05;" vertex="1" parent="1">
          <mxGeometry x="65" y="140" width="140" height="90" as="geometry" />
        </mxCell>
        <mxCell id="g8Qsp9AxYYXg8evCIIii-41" value="" style="endArrow=none;dashed=1;html=1;rounded=0;" edge="1" parent="1" source="g8Qsp9AxYYXg8evCIIii-12" target="g8Qsp9AxYYXg8evCIIii-40">
          <mxGeometry width="50" height="50" relative="1" as="geometry">
            <mxPoint x="502" y="380" as="sourcePoint" />
            <mxPoint x="610" y="401" as="targetPoint" />
          </mxGeometry>
        </mxCell>
        <mxCell id="g8Qsp9AxYYXg8evCIIii-42" value="ZeroTier network management" style="shape=note;whiteSpace=wrap;html=1;backgroundOutline=1;darkOpacity=0.05;" vertex="1" parent="1">
          <mxGeometry x="536.5" y="1032" width="140" height="90" as="geometry" />
        </mxCell>
        <mxCell id="g8Qsp9AxYYXg8evCIIii-43" value="" style="endArrow=none;dashed=1;html=1;rounded=0;" edge="1" parent="1" source="g8Qsp9AxYYXg8evCIIii-15" target="g8Qsp9AxYYXg8evCIIii-42">
          <mxGeometry width="50" height="50" relative="1" as="geometry">
            <mxPoint x="1016.5" y="506" as="sourcePoint" />
            <mxPoint x="1106.5" y="518" as="targetPoint" />
          </mxGeometry>
        </mxCell>
        <mxCell id="zsKFLf5ueRzPYkYR1kO8-3" value=":Users microservice" style="rounded=0;whiteSpace=wrap;html=1;" vertex="1" parent="1">
          <mxGeometry x="500" y="275" width="220" height="40" as="geometry" />
        </mxCell>
        <mxCell id="zsKFLf5ueRzPYkYR1kO8-4" value=":Project microservice" style="rounded=0;whiteSpace=wrap;html=1;" vertex="1" parent="1">
          <mxGeometry x="270" y="380" width="220" height="40" as="geometry" />
        </mxCell>
        <mxCell id="zsKFLf5ueRzPYkYR1kO8-5" value=":Risk microservice" style="rounded=0;whiteSpace=wrap;html=1;" vertex="1" parent="1">
          <mxGeometry x="270" y="430" width="220" height="40" as="geometry" />
        </mxCell>
        <mxCell id="zsKFLf5ueRzPYkYR1kO8-6" value=":Project phase microservice" style="rounded=0;whiteSpace=wrap;html=1;" vertex="1" parent="1">
          <mxGeometry x="270" y="480" width="220" height="40" as="geometry" />
        </mxCell>
        <mxCell id="zsKFLf5ueRzPYkYR1kO8-7" value=":Opportunity microservice" style="rounded=0;whiteSpace=wrap;html=1;" vertex="1" parent="1">
          <mxGeometry x="270" y="530" width="220" height="40" as="geometry" />
        </mxCell>
        <mxCell id="zsKFLf5ueRzPYkYR1kO8-8" value=":Risk template microservice" style="rounded=0;whiteSpace=wrap;html=1;" vertex="1" parent="1">
          <mxGeometry x="270" y="580" width="220" height="40" as="geometry" />
        </mxCell>
        <mxCell id="zsKFLf5ueRzPYkYR1kO8-9" value=":Analysis microservice" style="rounded=0;whiteSpace=wrap;html=1;" vertex="1" parent="1">
          <mxGeometry x="270" y="630" width="220" height="40" as="geometry" />
        </mxCell>
        <mxCell id="zsKFLf5ueRzPYkYR1kO8-10" value="" style="endArrow=none;html=1;rounded=0;" edge="1" parent="1" source="g8Qsp9AxYYXg8evCIIii-5" target="g8Qsp9AxYYXg8evCIIii-6">
          <mxGeometry width="50" height="50" relative="1" as="geometry">
            <mxPoint x="450" y="490" as="sourcePoint" />
            <mxPoint x="500" y="440" as="targetPoint" />
          </mxGeometry>
        </mxCell>
        <mxCell id="MzAcgbCr3eFc4RyD267V-1" value=":RabbitMQ service" style="rounded=0;whiteSpace=wrap;html=1;" vertex="1" parent="1">
          <mxGeometry x="270" y="680" width="220" height="40" as="geometry" />
        </mxCell>
        <mxCell id="_apUtPfakFuTe7Tuscar-1" value=":Frontend service" style="rounded=0;whiteSpace=wrap;html=1;" vertex="1" parent="1">
          <mxGeometry x="500" y="680" width="220" height="40" as="geometry" />
        </mxCell>
        <mxCell id="pHl6cIc0ClowETF8Tdra-1" value=":API Gateway service" style="rounded=0;whiteSpace=wrap;html=1;" vertex="1" parent="1">
          <mxGeometry x="270" y="730" width="220" height="40" as="geometry" />
        </mxCell>
      </root>
    </mxGraphModel>
  </diagram>
</mxfile>
